<?xml version="1.0" encoding="UTF-8" standalone="no"?>
<!-- Generator: Adobe Illustrator 23.0.1, SVG Export Plug-In . SVG Version: 6.00 Build 0)  -->

<svg
   xmlns:dc="http://purl.org/dc/elements/1.1/"
   xmlns:cc="http://creativecommons.org/ns#"
   xmlns:rdf="http://www.w3.org/1999/02/22-rdf-syntax-ns#"
   xmlns:svg="http://www.w3.org/2000/svg"
   xmlns="http://www.w3.org/2000/svg"
   xmlns:xlink="http://www.w3.org/1999/xlink"
   xmlns:sodipodi="http://sodipodi.sourceforge.net/DTD/sodipodi-0.dtd"
   xmlns:inkscape="http://www.inkscape.org/namespaces/inkscape"
   version="1.1"
   id="Layer_1"
   x="0px"
   y="0px"
   viewBox="0 0 50 50"
   xml:space="preserve"
   sodipodi:docname="MLM-50x50.svg"
   width="50"
   height="50"
   inkscape:export-filename="C:\Users\BB\Desktop\##FOR TRANSFER TO HDs##\Musings of a Liberal Malcontent\MLM 50x50.png"
   inkscape:export-xdpi="96"
   inkscape:export-ydpi="96"
   inkscape:version="0.92.4 (5da689c313, 2019-01-14)"><metadata
   id="metadata859"><rdf:RDF><cc:Work
       rdf:about=""><dc:format>image/svg+xml</dc:format><dc:type
         rdf:resource="http://purl.org/dc/dcmitype/StillImage" /><dc:title /></cc:Work></rdf:RDF></metadata><defs
   id="defs857" /><sodipodi:namedview
   pagecolor="#ffffff"
   bordercolor="#666666"
   borderopacity="1"
   objecttolerance="10"
   gridtolerance="10"
   guidetolerance="10"
   inkscape:pageopacity="0"
   inkscape:pageshadow="2"
   inkscape:window-width="1600"
   inkscape:window-height="837"
   id="namedview855"
   showgrid="false"
   inkscape:zoom="7.4092307"
   inkscape:cx="-8.1201695"
   inkscape:cy="23.257341"
   inkscape:window-x="-8"
   inkscape:window-y="-8"
   inkscape:window-maximized="1"
   inkscape:current-layer="Layer_1" />
<style
   type="text/css"
   id="style2">
	.st0{clip-path:url(#SVGID_2_);}
	.st1{fill:#214080;}
	.st2{fill:#CC4D9C;}
	.st3{fill:#FFFFFF;}
	.st4{clip-path:url(#SVGID_4_);fill:#4AA5DC;}
	.st5{clip-path:url(#SVGID_6_);fill:#E81D2A;}
	.st6{clip-path:url(#SVGID_8_);}
	.st7{clip-path:url(#SVGID_10_);}
	.st8{fill:#3D3C6F;}
	.st9{clip-path:url(#SVGID_12_);}
	.st10{clip-path:url(#SVGID_14_);}
	.st11{fill:none;stroke:#000000;stroke-width:3;stroke-miterlimit:10;}
	.st12{fill:#71C05B;}
	.st13{clip-path:url(#SVGID_16_);fill:#E81D2A;}
	.st14{clip-path:url(#SVGID_18_);}
	.st15{clip-path:url(#SVGID_20_);}
	.st16{clip-path:url(#SVGID_22_);fill:#E81D2A;}
	.st17{clip-path:url(#SVGID_24_);}
	.st18{clip-path:url(#SVGID_26_);}
</style>























<g
   id="g852"
   transform="matrix(0.15743569,0,0,0.15743569,-12.083189,-38.954314)">
	<g
   id="g838">
		<circle
   class="st3"
   cx="235.53999"
   cy="406.23001"
   r="158.78999"
   id="circle676"
   style="fill:#ffffff" />
		<g
   id="g836">
			<g
   id="g686">
				<defs
   id="defs679">
					
						<rect
   id="SVGID_21_"
   x="-8.0500002"
   y="416.69"
   transform="matrix(0.5987,0.801,-0.801,0.5987,436.6387,67.7175)"
   width="317.57999"
   height="105.86" />
				</defs>
				<clipPath
   id="SVGID_22_">
					<use
   xlink:href="#SVGID_21_"
   style="overflow:visible"
   id="use681"
   x="0"
   y="0"
   width="100%"
   height="100%" />
				</clipPath>
				<circle
   class="st16"
   cx="235.53999"
   cy="406.23001"
   r="158.78999"
   clip-path="url(#SVGID_22_)"
   id="circle684"
   style="fill:#e81d2a" />
			</g>
			<g
   id="g834">
				<defs
   id="defs689">
					
						<rect
   id="SVGID_23_"
   x="161.55"
   y="289.91"
   transform="matrix(0.5987,0.801,-0.801,0.5987,403.1533,-119.0065)"
   width="317.57999"
   height="105.86" />
				</defs>
				<clipPath
   id="SVGID_24_">
					<use
   xlink:href="#SVGID_23_"
   style="overflow:visible"
   id="use691"
   x="0"
   y="0"
   width="100%"
   height="100%" />
				</clipPath>
				<g
   class="st17"
   clip-path="url(#SVGID_24_)"
   id="g832">
					<g
   id="g824">
						<defs
   id="defs695">
							<circle
   id="SVGID_25_"
   cx="235.55"
   cy="406.22"
   r="158.78999" />
						</defs>
						<clipPath
   id="SVGID_26_">
							<use
   xlink:href="#SVGID_25_"
   style="overflow:visible"
   id="use697"
   x="0"
   y="0"
   width="100%"
   height="100%" />
						</clipPath>
						<g
   class="st18"
   clip-path="url(#SVGID_26_)"
   id="g822">
							
								<rect
   x="-4.9499998"
   y="237.22"
   transform="matrix(0.5987,0.801,-0.801,0.5987,419.8934,-25.659)"
   class="st1"
   width="481"
   height="338"
   id="rect700"
   style="fill:#214080" />
							<polygon
   class="st2"
   points="281.21,394.25 272.42,382.05 280.27,370.75 267.39,375.1 258.55,363.27 257.52,377.54 244.8,382.77 257.67,387.64 259.17,401.99 266.42,390.32 "
   id="polygon702"
   style="fill:#cc4d9c" />
							<g
   id="g716">
								<polygon
   class="st3"
   points="242.61,166.11 233.82,153.92 241.67,142.61 228.79,146.97 219.95,135.14 218.93,149.41 206.21,154.64 219.07,159.51 220.57,173.86 227.82,162.19 "
   id="polygon704"
   style="fill:#ffffff" />
								<polygon
   class="st3"
   points="291.87,232.02 283.09,219.82 290.94,208.52 278.06,212.88 269.22,201.05 268.19,215.32 255.47,220.54 268.33,225.42 269.84,239.77 277.09,228.1 "
   id="polygon706"
   style="fill:#ffffff" />
								<polygon
   class="st3"
   points="340.82,297.51 332.04,285.31 339.89,274.01 327.01,278.36 318.17,266.54 317.14,280.8 304.42,286.03 317.28,290.9 318.79,305.25 326.04,293.58 "
   id="polygon708"
   style="fill:#ffffff" />
								<polygon
   class="st3"
   points="390.72,364.26 381.93,352.06 389.78,340.76 376.91,345.12 368.06,333.29 367.04,347.55 354.32,352.78 367.18,357.66 368.69,372.01 375.93,360.33 "
   id="polygon710"
   style="fill:#ffffff" />
								<polygon
   class="st3"
   points="439.67,429.75 430.88,417.55 438.73,406.25 425.86,410.6 417.01,398.77 415.99,413.04 403.27,418.27 416.13,423.14 417.64,437.49 424.88,425.82 "
   id="polygon712"
   style="fill:#ffffff" />
								<polygon
   class="st3"
   points="488.94,495.65 480.15,483.45 488,472.15 475.12,476.51 466.28,464.68 465.25,478.95 452.53,484.18 465.4,489.05 466.9,503.4 474.15,491.73 "
   id="polygon714"
   style="fill:#ffffff" />
							</g>
							<g
   id="g728">
								<polygon
   class="st3"
   points="238.94,220.23 230.15,208.03 238,196.73 225.12,201.08 216.28,189.26 215.25,203.52 202.53,208.75 215.39,213.62 216.9,227.97 224.15,216.3 "
   id="polygon718"
   style="fill:#ffffff" />
								<polygon
   class="st3"
   points="288.04,285.92 279.25,273.73 287.1,262.42 274.23,266.78 265.39,254.95 264.36,269.22 251.64,274.45 264.5,279.32 266.01,293.67 273.25,282 "
   id="polygon720"
   style="fill:#ffffff" />
								<polygon
   class="st3"
   points="337.54,352.14 328.75,339.94 336.6,328.64 323.72,333 314.88,321.17 313.86,335.43 301.14,340.66 314,345.54 315.5,359.88 322.75,348.21 "
   id="polygon722"
   style="fill:#ffffff" />
								<polygon
   class="st3"
   points="386.89,418.16 378.1,405.96 385.95,394.66 373.07,399.02 364.23,387.19 363.21,401.46 350.49,406.68 363.35,411.56 364.86,425.91 372.1,414.24 "
   id="polygon724"
   style="fill:#ffffff" />
								<polygon
   class="st3"
   points="436,483.86 427.21,471.66 435.06,460.36 422.18,464.72 413.34,452.89 412.31,467.15 399.59,472.38 412.46,477.25 413.96,491.6 421.21,479.93 "
   id="polygon726"
   style="fill:#ffffff" />
							</g>
							<g
   id="g742">
								<polygon
   class="st3"
   points="185.78,208.59 177,196.39 184.85,185.09 171.97,189.45 163.13,177.62 162.1,191.88 149.38,197.11 162.24,201.99 163.75,216.34 171,204.66 "
   id="polygon730"
   style="fill:#ffffff" />
								<polygon
   class="st3"
   points="235.05,274.5 226.26,262.3 234.11,251 221.23,255.36 212.39,243.53 211.37,257.79 198.65,263.02 211.51,267.89 213.02,282.24 220.26,270.57 "
   id="polygon732"
   style="fill:#ffffff" />
								<polygon
   class="st3"
   points="284,339.98 275.21,327.79 283.06,316.48 270.18,320.84 261.34,309.01 260.32,323.28 247.6,328.51 260.46,333.38 261.97,347.73 269.21,336.06 "
   id="polygon734"
   style="fill:#ffffff" />
								<polygon
   class="st3"
   points="333.9,406.74 325.11,394.54 332.96,383.24 320.08,387.59 311.24,375.76 310.21,390.03 297.49,395.26 310.36,400.13 311.86,414.48 319.11,402.81 "
   id="polygon736"
   style="fill:#ffffff" />
								<polygon
   class="st3"
   points="382.85,472.22 374.06,460.02 381.91,448.72 369.03,453.08 360.19,441.25 359.16,455.52 346.44,460.74 359.31,465.62 360.81,479.97 368.06,468.29 "
   id="polygon738"
   style="fill:#ffffff" />
								<polygon
   class="st3"
   points="432.11,538.13 423.32,525.93 431.17,514.63 418.3,518.99 409.46,507.16 408.43,521.42 395.71,526.65 408.57,531.52 410.08,545.87 417.32,534.2 "
   id="polygon740"
   style="fill:#ffffff" />
							</g>
							<g
   id="g756">
								<polygon
   class="st3"
   points="128.96,251.07 120.17,238.87 128.02,227.57 115.14,231.92 106.3,220.09 105.28,234.36 92.56,239.59 105.42,244.46 106.93,258.81 114.17,247.14 "
   id="polygon744"
   style="fill:#ffffff" />
								<polygon
   class="st3"
   points="178.23,316.97 169.44,304.78 177.29,293.47 164.41,297.83 155.57,286 154.54,300.27 141.82,305.5 154.68,310.37 156.19,324.72 163.44,313.05 "
   id="polygon746"
   style="fill:#ffffff" />
								<polygon
   class="st3"
   points="227.18,382.46 218.39,370.26 226.24,358.96 213.36,363.32 204.52,351.49 203.49,365.75 190.77,370.98 203.63,375.85 205.14,390.2 212.39,378.53 "
   id="polygon748"
   style="fill:#ffffff" />
								<polygon
   class="st3"
   points="277.07,449.21 268.28,437.01 276.14,425.71 263.26,430.07 254.42,418.24 253.39,432.51 240.67,437.73 253.53,442.61 255.04,456.96 262.28,445.29 "
   id="polygon750"
   style="fill:#ffffff" />
								<polygon
   class="st3"
   points="326.02,514.7 317.23,502.5 325.08,491.2 312.21,495.55 303.37,483.72 302.34,497.99 289.62,503.22 302.48,508.09 303.99,522.44 311.23,510.77 "
   id="polygon752"
   style="fill:#ffffff" />
								<polygon
   class="st3"
   points="375.29,580.61 366.5,568.41 374.35,557.1 361.47,561.46 352.63,549.63 351.61,563.9 338.89,569.13 351.75,574 353.25,588.35 360.5,576.68 "
   id="polygon754"
   style="fill:#ffffff" />
							</g>
							<g
   id="g770">
								<polygon
   class="st3"
   points="74.2,292 65.41,279.8 73.26,268.5 60.38,272.86 51.54,261.03 50.51,275.3 37.79,280.52 50.65,285.4 52.16,299.75 59.41,288.08 "
   id="polygon758"
   style="fill:#ffffff" />
								<polygon
   class="st3"
   points="123.46,357.91 114.67,345.71 122.52,334.41 109.65,338.77 100.8,326.94 99.78,341.2 87.06,346.43 99.92,351.31 101.43,365.66 108.67,353.98 "
   id="polygon760"
   style="fill:#ffffff" />
								<polygon
   class="st3"
   points="172.41,423.4 163.62,411.2 171.47,399.9 158.6,404.25 149.75,392.42 148.73,406.69 136.01,411.92 148.87,416.79 150.38,431.14 157.62,419.47 "
   id="polygon762"
   style="fill:#ffffff" />
								<polygon
   class="st3"
   points="222.31,490.15 213.52,477.95 221.37,466.65 208.49,471.01 199.65,459.18 198.63,473.44 185.9,478.67 198.77,483.54 200.27,497.89 207.52,486.22 "
   id="polygon764"
   style="fill:#ffffff" />
								<polygon
   class="st3"
   points="271.26,555.63 262.47,543.44 270.32,532.13 257.44,536.49 248.6,524.66 247.58,538.93 234.85,544.16 247.72,549.03 249.22,563.38 256.47,551.71 "
   id="polygon766"
   style="fill:#ffffff" />
								<polygon
   class="st3"
   points="320.52,621.54 311.73,609.34 319.59,598.04 306.71,602.4 297.87,590.57 296.84,604.84 284.12,610.06 296.98,614.94 298.49,629.29 305.73,617.61 "
   id="polygon768"
   style="fill:#ffffff" />
							</g>
							<g
   id="g784">
								<polygon
   class="st3"
   points="17.12,334.67 8.33,322.47 16.18,311.17 3.3,315.53 -5.54,303.7 -6.57,317.96 -19.29,323.19 -6.43,328.06 -4.92,342.41 2.33,330.74 "
   id="polygon772"
   style="fill:#ffffff" />
								<polygon
   class="st3"
   points="66.38,400.58 57.59,388.38 65.44,377.08 52.57,381.43 43.72,369.6 42.7,383.87 29.98,389.1 42.84,393.97 44.35,408.32 51.59,396.65 "
   id="polygon774"
   style="fill:#ffffff" />
								<polygon
   class="st3"
   points="115.33,466.06 106.54,453.86 114.39,442.56 101.52,446.92 92.67,435.09 91.65,449.36 78.93,454.58 91.79,459.46 93.3,473.81 100.54,462.14 "
   id="polygon776"
   style="fill:#ffffff" />
								<polygon
   class="st3"
   points="165.23,532.82 156.44,520.62 164.29,509.31 151.41,513.67 142.57,501.84 141.55,516.11 128.83,521.34 141.69,526.21 143.19,540.56 150.44,528.89 "
   id="polygon778"
   style="fill:#ffffff" />
								<polygon
   class="st3"
   points="214.18,598.3 205.39,586.1 213.24,574.8 200.36,579.16 191.52,567.33 190.5,581.59 177.78,586.82 190.64,591.7 192.14,606.05 199.39,594.37 "
   id="polygon780"
   style="fill:#ffffff" />
								<polygon
   class="st3"
   points="263.44,664.21 254.66,652.01 262.51,640.71 249.63,645.07 240.79,633.24 239.76,647.5 227.04,652.73 239.9,657.6 241.41,671.95 248.66,660.28 "
   id="polygon782"
   style="fill:#ffffff" />
							</g>
							<g
   id="g796">
								<polygon
   class="st3"
   points="182.6,262.34 173.81,250.14 181.67,238.83 168.79,243.19 159.95,231.36 158.92,245.63 146.2,250.86 159.06,255.73 160.57,270.08 167.81,258.41 "
   id="polygon786"
   style="fill:#ffffff" />
								<polygon
   class="st3"
   points="231.71,328.03 222.92,315.83 230.77,304.53 217.9,308.89 209.05,297.06 208.03,311.33 195.31,316.55 208.17,321.43 209.68,335.78 216.92,324.1 "
   id="polygon788"
   style="fill:#ffffff" />
								<polygon
   class="st3"
   points="281.21,394.25 272.42,382.05 280.27,370.75 267.39,375.1 258.55,363.27 257.52,377.54 244.8,382.77 257.67,387.64 259.17,401.99 266.42,390.32 "
   id="polygon790"
   style="fill:#ffffff" />
								<polygon
   class="st3"
   points="330.56,460.27 321.77,448.07 329.62,436.77 316.74,441.13 307.9,429.3 306.88,443.56 294.16,448.79 307.02,453.66 308.52,468.01 315.77,456.34 "
   id="polygon792"
   style="fill:#ffffff" />
								<polygon
   class="st3"
   points="379.67,525.97 370.88,513.77 378.73,502.47 365.85,506.82 357.01,494.99 355.98,509.26 343.26,514.49 356.13,519.36 357.63,533.71 364.88,522.04 "
   id="polygon794"
   style="fill:#ffffff" />
							</g>
							<g
   id="g808">
								<polygon
   class="st3"
   points="125.68,304.88 116.89,292.68 124.74,281.38 111.87,285.74 103.02,273.91 102,288.18 89.28,293.41 102.14,298.28 103.65,312.63 110.89,300.96 "
   id="polygon798"
   style="fill:#ffffff" />
								<polygon
   class="st3"
   points="174.79,370.58 166,358.38 173.85,347.08 160.98,351.44 152.13,339.61 151.11,353.87 138.39,359.1 151.25,363.98 152.76,378.32 160,366.65 "
   id="polygon800"
   style="fill:#ffffff" />
								<polygon
   class="st3"
   points="224.29,436.8 215.5,424.6 223.35,413.3 210.47,417.65 201.63,405.82 200.6,420.09 187.88,425.32 200.75,430.19 202.25,444.54 209.5,432.87 "
   id="polygon802"
   style="fill:#ffffff" />
								<polygon
   class="st3"
   points="273.64,502.82 264.85,490.62 272.7,479.32 259.82,483.67 250.98,471.85 249.95,486.11 237.23,491.34 250.1,496.21 251.6,510.56 258.85,498.89 "
   id="polygon804"
   style="fill:#ffffff" />
								<polygon
   class="st3"
   points="322.75,568.51 313.96,556.32 321.81,545.01 308.93,549.37 300.09,537.54 299.06,551.81 286.34,557.04 299.2,561.91 300.71,576.26 307.96,564.59 "
   id="polygon806"
   style="fill:#ffffff" />
							</g>
							<g
   id="g820">
								<polygon
   class="st3"
   points="70.31,346.27 61.52,334.07 69.37,322.77 56.5,327.13 47.65,315.3 46.63,329.57 33.91,334.8 46.77,339.67 48.28,354.02 55.52,342.35 "
   id="polygon810"
   style="fill:#ffffff" />
								<polygon
   class="st3"
   points="119.42,411.97 110.63,399.77 118.48,388.47 105.6,392.83 96.76,381 95.74,395.26 83.01,400.49 95.88,405.37 97.38,419.72 104.63,408.04 "
   id="polygon812"
   style="fill:#ffffff" />
								<polygon
   class="st3"
   points="168.91,478.19 160.13,465.99 167.98,454.69 155.1,459.04 146.26,447.21 145.23,461.48 132.51,466.71 145.37,471.58 146.88,485.93 154.13,474.26 "
   id="polygon814"
   style="fill:#ffffff" />
								<polygon
   class="st3"
   points="218.27,544.21 209.48,532.01 217.33,520.71 204.45,525.07 195.61,513.24 194.58,527.5 181.86,532.73 194.72,537.6 196.23,551.95 203.48,540.28 "
   id="polygon816"
   style="fill:#ffffff" />
								<polygon
   class="st3"
   points="267.37,609.9 258.58,597.71 266.44,586.4 253.56,590.76 244.72,578.93 243.69,593.2 230.97,598.43 243.83,603.3 245.34,617.65 252.58,605.98 "
   id="polygon818"
   style="fill:#ffffff" />
							</g>
						</g>
					</g>
					
						<rect
   x="194.97"
   y="288.16"
   transform="matrix(0.5987,0.801,-0.801,0.5987,338.5288,-46.1037)"
   class="st1"
   width="40.619999"
   height="53.27"
   id="rect826"
   style="fill:#214080" />
					
						<rect
   x="244.5"
   y="354.42001"
   transform="matrix(0.5987,0.801,-0.801,0.5987,411.4756,-59.1853)"
   class="st1"
   width="40.619999"
   height="53.27"
   id="rect828"
   style="fill:#214080" />
					
						<rect
   x="294.70999"
   y="421.60001"
   transform="matrix(0.5987,0.801,-0.801,0.5987,485.4302,-72.4477)"
   class="st1"
   width="40.619999"
   height="53.27"
   id="rect830"
   style="fill:#214080" />
				</g>
			</g>
		</g>
	</g>
	<g
   id="g842">
		<path
   d="m 142.41,352.81 8.8,-57.2 h 15.44 l 8.72,29.44 c 0.64,2.08 1.36,4.64 1.76,7.84 0.48,-3.44 1.28,-5.92 1.84,-7.76 l 8.64,-29.52 h 15.44 l 8.8,57.2 h -14.48 l -3.36,-24.72 c -0.48,-3.44 -0.96,-7.68 -1.28,-12.8 -0.8,5.04 -2,8.48 -2.64,10.72 l -7.76,26.8 h -10.4 l -7.76,-26.8 c -0.64,-2.24 -1.84,-5.68 -2.64,-10.72 -0.32,5.12 -0.72,9.36 -1.2,12.8 l -3.36,24.72 z"
   id="path840"
   inkscape:connector-curvature="0" />
	</g>
	<g
   id="g846">
		<path
   d="m 259.9,513.47 8.8,-57.2 h 15.44 l 8.72,29.44 c 0.64,2.08 1.36,4.64 1.76,7.84 0.48,-3.44 1.28,-5.92 1.84,-7.76 l 8.64,-29.52 h 15.44 l 8.8,57.2 h -14.48 l -3.36,-24.72 c -0.48,-3.44 -0.96,-7.68 -1.28,-12.8 -0.8,5.04 -2,8.48 -2.64,10.72 l -7.76,26.8 h -10.4 l -7.76,-26.8 c -0.64,-2.24 -1.84,-5.68 -2.64,-10.72 -0.32,5.12 -0.72,9.36 -1.2,12.8 l -3.36,24.72 z"
   id="path844"
   inkscape:connector-curvature="0" />
	</g>
	<g
   id="g850">
		<path
   d="m 219.27,375.17 h 15.6 v 43.84 h 19.36 v 13.36 h -34.96 z"
   id="path848"
   inkscape:connector-curvature="0" />
	</g>
</g>
</svg>